<svg height="512pt" viewBox="0 0 512 512.00005" width="512pt" xmlns="http://www.w3.org/2000/svg"><path d="m477.867188 73.808594v-39.675782c0-1.683593-.5-3.332031-1.433594-4.734374l-17.066406-25.597657c-.140626-.210937-.375-.3125-.53125-.507812-.449219-.554688-.96875-1.050781-1.542969-1.472657-.359375-.292968-.742188-.550781-1.148438-.773437-.644531-.3125-1.332031-.539063-2.039062-.675781-.324219-.128906-.65625-.242188-.996094-.3281252-.136719-.015625-.253906.0546874-.394531.046875-.160156-.0039063-.289063-.0898438-.449219-.0898438h-273.066406c-.351563 0-.707031.0195312-1.058594.0664062l-68.265625 8.5351558c-2.105469.261719-4.039062 1.300782-5.421875 2.910157l-50.730469 59.191406-50.652344 42.210937c-.09375.074219-.125.199219-.214843.28125-.605469.578126-1.121094 1.246094-1.527344 1.976563-.199219.261719-.386719.539063-.554687.820313-.5 1.089843-.7656255 2.273437-.773438 3.472656v102.402344c.015625 1.238281.300781 2.460937.84375 3.578124.035156.074219.019531.164063.054688.238282l24.191406 48.375-7.539063 30.164062-16.652343 33.292969c-.035157.074219-.019532.164063-.054688.238281-.542969 1.117188-.828125 2.339844-.84375 3.578125v110.933594c.0078125 2.265625.90625 4.433594 2.503906 6.035156l25.597656 25.601563c.863282.863281 1.898438 1.53125 3.039063 1.960937l68.265625 25.601563c.957031.355468 1.972656.539062 2.992188.535156h324.269531c2.261719 0 4.433593-.898438 6.03125-2.5l16.089843-16.085938 32.894532-16.449218c2.351562-1.179688 4.03125-3.375 4.550781-5.957032l8.308594-41.546874 16.554687-33.109376c.59375-1.183593.902344-2.492187.902344-3.816406v-128c0-1.6875-.5-3.332031-1.433594-4.734375l-15.632812-23.449219v-29.910156l16.457031-41.136718c.402344-1.007813.609375-2.085938.609375-3.171876v-42.667968c0-1.9375-.660156-3.816406-1.871094-5.328125zm-46.199219-56.742188-16.339844 16.339844-36.742187-7.351562-14.980469-8.988282zm-316.402344 8.058594 22.609375-2.824219-39.398438 45.964844h-20.1875zm-98.199219 188.207031v-85.332031h25.601563v85.332031zm31.046875-102.398437h-16.011719l30.71875-25.601563h16.011719zm-25.773437 119.464844h23.585937l17.066407 34.136718h-23.582032zm-5.273438 213.335937v-93.867187h25.601563v93.867187zm28.859375-110.933594h-23.585937l8.535156-17.066406h23.585938zm15.679688-34.132812h-25.074219l4.265625-17.066407h25.074219zm-32.472657 162.132812h18.535157l20.84375 20.84375-29.652344-11.117187zm465.800782-300.308593-16.457032 41.136718c-.402343 1.007813-.609374 2.085938-.609374 3.171875v34.132813c0 1.683594.5 3.332031 1.433593 4.734375l15.632813 23.449219v123.402343l-16.167969 32.332031c-.335937.675782-.585937 1.398438-.734375 2.140626l-7.714844 38.570312-30.398437 15.199219c-.824219.410156-1.570313.949219-2.21875 1.601562l-14.566407 14.570313h-276.519531l-65.089843-24.40625-21.789063-21.792969v-105.386719l16.164063-32.328125c.058593-.113281.078124-.234375.128906-.34375.0625-.136719.101562-.28125.15625-.425781.140625-.316406.261718-.644531.363281-.976562l8.53125-34.132813c.058594-.40625.085937-.8125.085937-1.21875.070313-.28125.128907-.566406.167969-.855469 0-.152344-.078125-.277344-.085937-.425781-.050782-.675781-.183594-1.34375-.398438-1.988281-.085937-.382813-.195312-.757813-.332031-1.128906-.039063-.082032-.039063-.1875-.085937-.273438l-24.695313-49.394531v-96.394531l48.128906-40.105469c.15625-.128907.289063-.289063.433594-.425781l.21875-.214844c.117187-.121094.253906-.226563.363281-.355469l49.054688-57.230469 64.464844-8.0625h108.039062l40.636719 24.382813c.839843.503906 1.757812.859375 2.71875 1.050781l42.664062 8.535156c2.800781.5625 5.695313-.316406 7.710938-2.335937l26.773437-26.769531 9.859375 14.785156v40.085937c0 1.9375.65625 3.816407 1.871094 5.328125l32.261719 40.328125zm0 0"/><path d="m128 443.734375h-14.484375l-19.648437-13.101563v-29.566406c0-4.710937-3.820313-8.53125-8.535157-8.53125-4.710937 0-8.53125 3.820313-8.53125 8.53125v34.132813c0 2.855469 1.425781 5.519531 3.800781 7.101562l25.597657 17.066407c1.402343.933593 3.050781 1.433593 4.734375 1.433593h17.066406c4.710938 0 8.535156-3.820312 8.535156-8.535156 0-4.710937-3.824218-8.53125-8.535156-8.53125zm0 0"/><path d="m452.265625 401.066406c-4.710937 0-8.53125 3.820313-8.53125 8.535156v15.683594l-3.730469 11.183594-15.835937-15.835938c-2.144531-2.21875-5.316407-3.105468-8.300781-2.328124-2.984376.78125-5.3125 3.113281-6.09375 6.097656-.78125 2.980468.109374 6.15625 2.328124 8.296875l16.449219 16.449219-30.65625 12.261718c-2.832031 1.132813-4.84375 3.6875-5.277343 6.707032-.433594 3.019531.773437 6.039062 3.171874 7.925781 2.398438 1.882812 5.617188 2.347656 8.449219 1.214843l42.625-17.054687c.390625-.15625.769531-.335937 1.132813-.546875l.015625-.007812.003906-.003907.011719-.007812c.671875-.390625 1.28125-.867188 1.824218-1.421875h.003907v-.003906l.007812-.007813c.898438-.929687 1.574219-2.050781 1.972657-3.28125l8.523437-25.550781c.292969-.871094.441406-1.785156.441406-2.703125v-17.066407c0-4.714843-3.820312-8.535156-8.535156-8.535156zm0 0"/><path d="m196.265625 460.800781h-25.597656c-4.714844 0-8.535157 3.820313-8.535157 8.53125 0 4.714844 3.820313 8.535157 8.535157 8.535157h25.597656c4.714844 0 8.535156-3.820313 8.535156-8.535157 0-4.710937-3.820312-8.53125-8.535156-8.53125zm0 0"/><path d="m145.066406 85.332031c2.265625.003907 4.433594-.894531 6.035156-2.5l24.171876-24.175781 23.691406-7.894531c4.472656-1.492188 6.886718-6.324219 5.398437-10.796875-1.492187-4.46875-6.324219-6.886719-10.796875-5.394532l-25.601562 8.535157c-1.253906.417969-2.394532 1.125-3.332032 2.0625l-25.597656 25.597656c-2.441406 2.441406-3.171875 6.113281-1.851562 9.300781 1.320312 3.1875 4.433594 5.265625 7.882812 5.265625zm0 0"/><path d="m447.535156 103.832031c-3.921875 2.617188-4.980468 7.914063-2.367187 11.835938l15.632812 23.449219v5.949218c0 4.714844 3.820313 8.535156 8.53125 8.535156 4.714844 0 8.535157-3.820312 8.535157-8.535156v-8.53125c0-1.6875-.5-3.332031-1.433594-4.734375l-17.066406-25.601562c-1.253907-1.882813-3.207032-3.191407-5.425782-3.636719s-4.527344.011719-6.40625 1.269531zm0 0"/><path d="m410.199219 254.085938c.628906-2.691407 1.535156-5.316407 2.703125-7.824219 1.78125-2.667969 4.171875-4.878907 6.972656-6.445313 9.082031-5.886718 16.410156-14.109375 21.214844-23.808594 2.839844-5.292968 3.402344-11.511718 1.558594-17.230468-3.277344-8.09375-9.355469-14.738282-17.128907-18.714844l2.953125-29.441406c.355469-3.519532-1.5-6.890625-4.660156-8.476563-3.160156-1.589843-6.972656-1.0625-9.585938 1.324219l-22.546874 20.59375c-25.617188-9.0625-35.457032 3.667969-38.578126 9.859375-4.980468 9.515625-7.226562 20.226563-6.484374 30.945313.425781 3.097656.082031 6.253906-1.007813 9.1875-1.339844 2.492187-2.9375 4.832031-4.765625 6.992187-6.304688 7.269531-10.242188 16.289063-11.296875 25.855469-.226563 1.820312-.628906 3.613281-1.191406 5.359375-6.332031-.839844-12.03125-4.25-15.765625-9.429688-4.242188-6.972656-5.175782-15.46875-2.542969-23.191406 3.449219-8.988281 4.003906-18.832031 1.589844-28.152344-.664063-2.664062-1.035157-5.394531-1.117188-8.136719.390625-3.082031 1.523438-6.023437 3.304688-8.570312 5.554687-9.21875 8.433593-19.804688 8.3125-30.566406 0-7.019532-3.085938-22.847656-30.292969-25.5625l-10.816406-27.875c-1.273438-3.28125-4.433594-5.445313-7.953125-5.445313s-6.679688 2.164063-7.953125 5.445313l-10.828125 27.882812c-27.203125 2.71875-30.292969 18.542969-30.292969 25.554688-.117188 10.761718 2.761719 21.34375 8.3125 30.5625 1.78125 2.546875 2.914062 5.488281 3.304688 8.566406-.078126 2.746094-.453126 5.476562-1.117188 8.140625-2.414062 9.304687-1.863281 19.132813 1.578125 28.113281 2.644531 7.734375 1.71875 16.246094-2.527344 23.230469-3.730469 5.179687-9.433593 8.589844-15.757812 9.429687-.578125-1.785156-.984375-3.617187-1.21875-5.480468-1.0625-9.519532-4.992188-18.492188-11.273438-25.726563-1.847656-2.171875-3.453125-4.535156-4.796875-7.050781-1.058594-2.902344-1.386718-6.019531-.953125-9.078125.769531-10.730469-1.484375-21.464844-6.503906-30.976563-3.128906-6.214843-12.933594-18.960937-38.589844-9.878906l-22.546875-20.585937c-2.613281-2.386719-6.425781-2.914063-9.585937-1.328125-3.160157 1.589844-5.015625 4.960937-4.660157 8.480468l2.949219 29.445313c-4.695312 2.703125-8.894531 6.199219-12.40625 10.324219-6.285156 7.035156-7.550781 17.234375-3.179687 25.59375 4.804687 9.707031 12.136718 17.9375 21.226562 23.828125 2.785156 1.558593 5.167969 3.746093 6.949219 6.390625 1.179687 2.523437 2.09375 5.160156 2.730469 7.871094 2.113281 9.425781 7.039062 17.988281 14.121094 24.550781 3.109374 3.109375 5.953124 6.46875 8.511718 10.042969l11.351563 58.402343c1.652343 8.652344 5.273437 16.8125 10.582031 23.84375l23.789062 31.554688c11.644532 15.269531 29.761719 24.214843 48.964844 24.1875h39.632813c19.207031.027343 37.320312-8.917969 48.972656-24.183594l23.820313-31.625c5.277343-6.992187 8.878906-15.101563 10.523437-23.707031l11.371094-58.519532c2.582031-3.53125 5.421875-6.867187 8.492187-9.984374 7.085938-6.570313 12.011719-15.132813 14.132813-24.5625zm-26.136719 12.421874c-4.191406 4.246094-8.023438 8.828126-11.464844 13.699219-.765625 1.082031-1.269531 2.328125-1.480468 3.632813l-11.679688 60.140625c-1.171875 6.050781-3.714844 11.753906-7.433594 16.671875l-23.777344 31.566406c-8.421874 10.996094-21.492187 17.421875-35.339843 17.382812h-39.632813c-13.847656.042969-26.921875-6.386718-35.335937-17.386718l-23.738281-31.503906c-3.753907-4.957032-6.316407-10.710938-7.492188-16.816407l-11.710938-60.261719c-.222656-1.144531-.675781-2.230468-1.335937-3.191406-3.425781-4.996094-7.304687-9.667968-11.585937-13.953125-4.941407-4.445312-8.324219-10.363281-9.644532-16.878906-.929687-3.824219-2.257812-7.542969-3.960937-11.089844-2.949219-5.183593-7.179688-9.523437-12.289063-12.601562-6.828125-4.289063-12.328125-10.390625-15.890625-17.625-1.339843-2.367188-.835937-5.347657 1.203125-7.148438 3.390625-3.675781 7.484375-6.636719 12.039063-8.703125 3.152343-1.585937 5.003906-4.953125 4.652343-8.46875l-1.289062-12.859375 10.015625 9.144531c2.488281 2.257813 6.070313 2.855469 9.152344 1.519532 6.699219-2.898438 18.425781-6.796875 21.789062-.113282 3.722657 6.984376 5.34375 14.902344 4.667969 22.789063-.628906 5.890625.332031 11.84375 2.773438 17.238281 1.847656 3.539063 4.074218 6.871094 6.632812 9.933594 4.382812 4.820312 7.097656 10.917969 7.753906 17.394531.742188 5.742188 2.519532 11.304688 5.25 16.410157 1.570313 2.910156 4.660156 4.667968 7.960938 4.53125 13.785156.226562 26.800781-6.335938 34.816406-17.558594 7.308594-11.425782 8.980469-25.570313 4.527344-38.386719-2.425782-6.054687-2.78125-12.742187-1.007813-19.019531.917969-3.816406 1.414063-7.722656 1.484375-11.644532-.273437-5.949218-2.128906-11.71875-5.371094-16.710937-4.183593-6.722656-6.355468-14.507813-6.25-22.425781 0-7.21875 12.191407-8.652344 19.457032-8.863282 3.429687-.101562 6.464844-2.246093 7.703125-5.441406l4.839843-12.460937 4.832032 12.460937c1.242187 3.199219 4.277344 5.339844 7.707031 5.441406 8.875.253907 19.457031 2.003907 19.457031 8.863282.105469 7.914062-2.0625 15.695312-6.25 22.414062-3.246094 4.996094-5.097656 10.765625-5.371094 16.714844.066407 3.921875.5625 7.828125 1.484376 11.644531 1.769531 6.292969 1.410156 12.996094-1.027344 19.0625-4.4375 12.804688-2.761719 26.9375 4.546875 38.351563 8.015625 11.214844 21.03125 17.777344 34.816406 17.550781 3.3125.179687 6.421875-1.589844 7.957031-4.53125 2.71875-5.070313 4.492188-10.59375 5.230469-16.300781.644531-6.515625 3.371094-12.65625 7.773437-17.507813 2.550782-3.046875 4.761719-6.359375 6.605469-9.878906 2.464844-5.410156 3.441407-11.386719 2.828125-17.304687-.648437-7.894532.96875-15.8125 4.664063-22.820313 3.347656-6.628906 15.070312-2.746094 21.765625.164063 3.085937 1.339843 6.667968.746093 9.15625-1.519532l10.011718-9.144531-1.277343 12.871094c-.351563 3.511719 1.496093 6.878906 4.652343 8.46875 5.78125 2.214843 10.644532 6.316406 13.800782 11.640625.441406 1.398437.246094 2.921875-.539063 4.160156l-.011719.023438c-3.5625 7.242187-9.066406 13.351562-15.902343 17.648437-5.121094 3.089844-9.359375 7.449219-12.308594 12.65625-1.695313 3.53125-3.011719 7.230469-3.933594 11.035156-1.332031 6.523438-4.722656 12.445313-9.671875 16.894531zm0 0"/><path d="m281.636719 375.464844h-29.867188l-22.207031-29.609375-8.097656-24.285157c-1.488282-4.472656-6.324219-6.886718-10.792969-5.398437-4.472656 1.492187-6.886719 6.324219-5.398437 10.796875l8.535156 25.597656c.292968.871094.71875 1.6875 1.269531 2.421875l25.601563 34.132813c1.609374 2.152344 4.140624 3.417968 6.828124 3.414062h34.132813c4.710937 0 8.53125-3.820312 8.53125-8.53125 0-4.714844-3.820313-8.535156-8.53125-8.535156zm0 0"/></svg>